# Exported from Wings 3D 2.4.1
mtllib ball_diamond_ball.mtl
o sphere1_copy4
#86 vertices, 168 faces
v 0.19134172 2.46193977 3.7518438e-18
v 0.16570679 2.46193977 9.5670858e-2
v 9.5670858e-2 2.46193977 0.16570679
v 3.3743255e-17 2.46193977 0.19134172
v -9.5670858e-2 2.46193977 0.16570679
v -0.16570679 2.46193977 9.5670858e-2
v -0.19134172 2.46193977 2.7184446e-17
v -0.16570679 2.46193977 -9.5670858e-2
v -9.5670858e-2 2.46193977 -0.16570679
v -1.3121949e-17 2.46193977 -0.19134172
v 9.5670858e-2 2.46193977 -0.16570679
v 0.16570679 2.46193977 -9.5670858e-2
v 0.35355339 2.35355339 3.7518438e-18
v 0.30618622 2.35355339 0.17677670
v 0.17677670 2.35355339 0.30618622
v 4.3675855e-17 2.35355339 0.35355339
v -0.17677670 2.35355339 0.30618622
v -0.30618622 2.35355339 0.17677670
v -0.35355339 2.35355339 4.7049647e-17
v -0.30618622 2.35355339 -0.17677670
v -0.17677670 2.35355339 -0.30618622
v -4.2919750e-17 2.35355339 -0.35355339
v 0.17677670 2.35355339 -0.30618622
v 0.30618622 2.35355339 -0.17677670
v 0.46193977 2.19134172 3.7518438e-18
v 0.40005157 2.19134172 0.23096988
v 0.23096988 2.19134172 0.40005157
v 5.0312607e-17 2.19134172 0.46193977
v -0.23096988 2.19134172 0.40005157
v -0.40005157 2.19134172 0.23096988
v -0.46193977 2.19134172 6.0323149e-17
v -0.40005157 2.19134172 -0.23096988
v -0.23096988 2.19134172 -0.40005157
v -6.2830005e-17 2.19134172 -0.46193977
v 0.23096988 2.19134172 -0.40005157
v 0.40005157 2.19134172 -0.23096988
v 0.50000000 2.00000000 3.7518438e-18
v 0.43301270 2.00000000 0.25000000
v 0.25000000 2.00000000 0.43301270
v 5.2643124e-17 2.00000000 0.50000000
v -0.25000000 2.00000000 0.43301270
v -0.43301270 2.00000000 0.25000000
v -0.50000000 2.00000000 6.4984184e-17
v -0.43301270 2.00000000 -0.25000000
v -0.25000000 2.00000000 -0.43301270
v -6.9821556e-17 2.00000000 -0.50000000
v 0.25000000 2.00000000 -0.43301270
v 0.43301270 2.00000000 -0.25000000
v 0.46193977 1.80865828 3.7518438e-18
v 0.40005157 1.80865828 0.23096988
v 0.23096988 1.80865828 0.40005157
v 5.0312607e-17 1.80865828 0.46193977
v -0.23096988 1.80865828 0.40005157
v -0.40005157 1.80865828 0.23096988
v -0.46193977 1.80865828 6.0323149e-17
v -0.40005157 1.80865828 -0.23096988
v -0.23096988 1.80865828 -0.40005157
v -6.2830005e-17 1.80865828 -0.46193977
v 0.23096988 1.80865828 -0.40005157
v 0.40005157 1.80865828 -0.23096988
v 0.35355339 1.64644661 3.7518438e-18
v 0.30618622 1.64644661 0.17677670
v 0.17677670 1.64644661 0.30618622
v 4.3675855e-17 1.64644661 0.35355339
v -0.17677670 1.64644661 0.30618622
v -0.30618622 1.64644661 0.17677670
v -0.35355339 1.64644661 4.7049647e-17
v -0.30618622 1.64644661 -0.17677670
v -0.17677670 1.64644661 -0.30618622
v -4.2919750e-17 1.64644661 -0.35355339
v 0.17677670 1.64644661 -0.30618622
v 0.30618622 1.64644661 -0.17677670
v 0.19134172 1.53806023 3.7518438e-18
v 0.16570679 1.53806023 9.5670858e-2
v 9.5670858e-2 1.53806023 0.16570679
v 3.3743255e-17 1.53806023 0.19134172
v -9.5670858e-2 1.53806023 0.16570679
v -0.16570679 1.53806023 9.5670858e-2
v -0.19134172 1.53806023 2.7184446e-17
v -0.16570679 1.53806023 -9.5670858e-2
v -9.5670858e-2 1.53806023 -0.16570679
v -1.3121949e-17 1.53806023 -0.19134172
v 9.5670858e-2 1.53806023 -0.16570679
v 0.16570679 1.53806023 -9.5670858e-2
v 2.2026954e-17 2.50000000 3.7518438e-18
v 2.2026954e-17 1.50000000 3.7518438e-18
vn 0.44220927 0.89691190 7.5889698e-17
vn 0.33064991 0.92424429 0.19090082
vn 0.22110463 0.89691190 0.38296446
vn 0.0000000e+0 0.92424429 0.38180163
vn -0.22110463 0.89691190 0.38296446
vn -0.33064991 0.92424429 0.19090082
vn -0.44220927 0.89691190 9.6759365e-16
vn -0.33064991 0.92424429 -0.19090082
vn -0.22110463 0.89691190 -0.38296446
vn -1.4948805e-16 0.92424429 -0.38180163
vn 0.22110463 0.89691190 -0.38296446
vn 0.33064991 0.92424429 -0.19090082
vn 0.70617349 0.70803885 -4.6801440e-16
vn 0.61156418 0.70803885 0.35308674
vn 0.35308674 0.70803885 0.61156418
vn -8.2802548e-17 0.70803885 0.70617349
vn -0.35308674 0.70803885 0.61156418
vn -0.61156418 0.70803885 0.35308674
vn -0.70617349 0.70803885 -4.3201330e-17
vn -0.61156418 0.70803885 -0.35308674
vn -0.35308674 0.70803885 -0.61156418
vn -2.9880920e-16 0.70803885 -0.70617349
vn 0.35308674 0.70803885 -0.61156418
vn 0.61156418 0.70803885 -0.35308674
vn 0.92353014 0.38352586 -2.3664948e-16
vn 0.79980056 0.38352586 0.46176507
vn 0.46176507 0.38352586 0.79980056
vn -1.4563045e-17 0.38352586 0.92353014
vn -0.46176507 0.38352586 0.79980056
vn -0.79980056 0.38352586 0.46176507
vn -0.92353014 0.38352586 5.0970657e-17
vn -0.79980056 0.38352586 -0.46176507
vn -0.46176507 0.38352586 -0.79980056
vn -1.4563045e-16 0.38352586 -0.92353014
vn 0.46176507 0.38352586 -0.79980056
vn 0.79980056 0.38352586 -0.46176507
vn 1.00000000 7.3150651e-18 -2.7797247e-16
vn 0.86602540 5.8520521e-17 0.50000000
vn 0.50000000 0.0000000e+0 0.86602540
vn 3.5112312e-16 -9.1438314e-17 1.00000000
vn -0.50000000 -2.1945195e-17 0.86602540
vn -0.86602540 7.3150651e-18 0.50000000
vn -1.00000000 7.3150651e-18 4.2427377e-16
vn -0.86602540 -2.1945195e-17 -0.50000000
vn -0.50000000 1.9019169e-16 -0.86602540
vn -3.0723273e-16 1.3532870e-16 -1.00000000
vn 0.50000000 2.1945195e-17 -0.86602540
vn 0.86602540 1.0972598e-17 -0.50000000
vn 0.92353014 -0.38352586 -1.6747502e-16
vn 0.79980056 -0.38352586 0.46176507
vn 0.46176507 -0.38352586 0.79980056
vn -1.2378588e-16 -0.38352586 0.92353014
vn -0.46176507 -0.38352586 0.79980056
vn -0.79980056 -0.38352586 0.46176507
vn -0.92353014 -0.38352586 1.4927121e-16
vn -0.79980056 -0.38352586 -0.46176507
vn -0.46176507 -0.38352586 -0.79980056
vn -3.4223156e-16 -0.38352586 -0.92353014
vn 0.46176507 -0.38352586 -0.79980056
vn 0.79980056 -0.38352586 -0.46176507
vn 0.70617349 -0.70803885 -9.3602881e-17
vn 0.61156418 -0.70803885 0.35308674
vn 0.35308674 -0.70803885 0.61156418
vn -1.8000554e-17 -0.70803885 0.70617349
vn -0.35308674 -0.70803885 0.61156418
vn -0.61156418 -0.70803885 0.35308674
vn -0.70617349 -0.70803885 3.3121019e-16
vn -0.61156418 -0.70803885 -0.35308674
vn -0.35308674 -0.70803885 -0.61156418
vn -2.0520632e-16 -0.70803885 -0.70617349
vn 0.35308674 -0.70803885 -0.61156418
vn 0.61156418 -0.70803885 -0.35308674
vn 0.44220927 -0.89691190 -1.8498114e-16
vn 0.33064991 -0.92424429 0.19090082
vn 0.22110463 -0.89691190 0.38296446
vn -3.5592393e-17 -0.92424429 0.38180163
vn -0.22110463 -0.89691190 0.38296446
vn -0.33064991 -0.92424429 0.19090082
vn -0.44220927 -0.89691190 -9.0119017e-16
vn -0.33064991 -0.92424429 -0.19090082
vn -0.22110463 -0.89691190 -0.38296446
vn -2.5626523e-16 -0.92424429 -0.38180163
vn 0.22110463 -0.89691190 -0.38296446
vn 0.33064991 -0.92424429 -0.19090082
vn -7.0844946e-18 1.00000000 2.4205357e-17
vn -3.0699477e-17 -1.00000000 3.6780335e-16
g sphere1_copy4_default
usemtl default
s 1
f 1//1 14//14 13//13
f 1//1 24//24 12//12
f 1//1 85//85 2//2
f 2//2 14//14 1//1
f 2//2 85//85 3//3
f 3//3 14//14 2//2
f 3//3 16//16 15//15
f 3//3 85//85 4//4
f 4//4 16//16 3//3
f 4//4 85//85 5//5
f 5//5 16//16 4//4
f 5//5 18//18 17//17
f 5//5 85//85 6//6
f 6//6 18//18 5//5
f 6//6 85//85 7//7
f 7//7 18//18 6//6
f 7//7 20//20 19//19
f 7//7 85//85 8//8
f 8//8 20//20 7//7
f 8//8 85//85 9//9
f 9//9 20//20 8//8
f 9//9 22//22 21//21
f 9//9 85//85 10//10
f 10//10 22//22 9//9
f 10//10 85//85 11//11
f 11//11 22//22 10//10
f 11//11 24//24 23//23
f 11//11 85//85 12//12
f 12//12 24//24 11//11
f 12//12 85//85 1//1
f 13//13 24//24 1//1
f 13//13 25//25 24//24
f 14//14 25//25 13//13
f 14//14 27//27 26//26
f 15//15 14//14 3//3
f 15//15 27//27 14//14
f 16//16 27//27 15//15
f 16//16 29//29 28//28
f 17//17 16//16 5//5
f 17//17 29//29 16//16
f 18//18 29//29 17//17
f 18//18 31//31 30//30
f 19//19 18//18 7//7
f 19//19 31//31 18//18
f 20//20 31//31 19//19
f 20//20 33//33 32//32
f 21//21 20//20 9//9
f 21//21 33//33 20//20
f 22//22 33//33 21//21
f 22//22 35//35 34//34
f 23//23 22//22 11//11
f 23//23 35//35 22//22
f 24//24 25//25 36//36
f 24//24 35//35 23//23
f 25//25 38//38 37//37
f 25//25 48//48 36//36
f 26//26 25//25 14//14
f 26//26 38//38 25//25
f 27//27 38//38 26//26
f 27//27 40//40 39//39
f 28//28 27//27 16//16
f 28//28 40//40 27//27
f 29//29 40//40 28//28
f 29//29 42//42 41//41
f 30//30 29//29 18//18
f 30//30 42//42 29//29
f 31//31 42//42 30//30
f 31//31 44//44 43//43
f 32//32 31//31 20//20
f 32//32 44//44 31//31
f 33//33 44//44 32//32
f 33//33 46//46 45//45
f 34//34 33//33 22//22
f 34//34 46//46 33//33
f 35//35 46//46 34//34
f 35//35 48//48 47//47
f 36//36 35//35 24//24
f 36//36 48//48 35//35
f 37//37 48//48 25//25
f 37//37 49//49 48//48
f 38//38 49//49 37//37
f 38//38 51//51 50//50
f 39//39 38//38 27//27
f 39//39 51//51 38//38
f 40//40 51//51 39//39
f 40//40 53//53 52//52
f 41//41 40//40 29//29
f 41//41 53//53 40//40
f 42//42 53//53 41//41
f 42//42 55//55 54//54
f 43//43 42//42 31//31
f 43//43 55//55 42//42
f 44//44 55//55 43//43
f 44//44 57//57 56//56
f 45//45 44//44 33//33
f 45//45 57//57 44//44
f 46//46 57//57 45//45
f 46//46 59//59 58//58
f 47//47 46//46 35//35
f 47//47 59//59 46//46
f 48//48 49//49 60//60
f 48//48 59//59 47//47
f 49//49 62//62 61//61
f 49//49 72//72 60//60
f 50//50 49//49 38//38
f 50//50 62//62 49//49
f 51//51 62//62 50//50
f 51//51 64//64 63//63
f 52//52 51//51 40//40
f 52//52 64//64 51//51
f 53//53 64//64 52//52
f 53//53 66//66 65//65
f 54//54 53//53 42//42
f 54//54 66//66 53//53
f 55//55 66//66 54//54
f 55//55 68//68 67//67
f 56//56 55//55 44//44
f 56//56 68//68 55//55
f 57//57 68//68 56//56
f 57//57 70//70 69//69
f 58//58 57//57 46//46
f 58//58 70//70 57//57
f 59//59 70//70 58//58
f 59//59 72//72 71//71
f 60//60 59//59 48//48
f 60//60 72//72 59//59
f 61//61 72//72 49//49
f 61//61 73//73 72//72
f 62//62 73//73 61//61
f 62//62 75//75 74//74
f 63//63 62//62 51//51
f 63//63 75//75 62//62
f 64//64 75//75 63//63
f 64//64 77//77 76//76
f 65//65 64//64 53//53
f 65//65 77//77 64//64
f 66//66 77//77 65//65
f 66//66 79//79 78//78
f 67//67 66//66 55//55
f 67//67 79//79 66//66
f 68//68 79//79 67//67
f 68//68 81//81 80//80
f 69//69 68//68 57//57
f 69//69 81//81 68//68
f 70//70 81//81 69//69
f 70//70 83//83 82//82
f 71//71 70//70 59//59
f 71//71 83//83 70//70
f 72//72 73//73 84//84
f 72//72 83//83 71//71
f 73//73 86//86 84//84
f 74//74 73//73 62//62
f 74//74 86//86 73//73
f 75//75 86//86 74//74
f 76//76 75//75 64//64
f 76//76 86//86 75//75
f 77//77 86//86 76//76
f 78//78 77//77 66//66
f 78//78 86//86 77//77
f 79//79 86//86 78//78
f 80//80 79//79 68//68
f 80//80 86//86 79//79
f 81//81 86//86 80//80
f 82//82 81//81 70//70
f 82//82 86//86 81//81
f 83//83 86//86 82//82
f 84//84 83//83 72//72
f 84//84 86//86 83//83
o cone2
#18 vertices, 32 faces
v 0.50000000 0.0000000e+0 4.5268590e-17
v 0.46193977 0.0000000e+0 0.19134172
v 0.35355339 0.0000000e+0 0.35355339
v 0.19134172 0.0000000e+0 0.46193977
v 1.5196406e-17 0.0000000e+0 0.50000000
v -0.19134172 0.0000000e+0 0.46193977
v -0.35355339 0.0000000e+0 0.35355339
v -0.46193977 0.0000000e+0 0.19134172
v -0.50000000 0.0000000e+0 1.0650093e-16
v -0.46193977 0.0000000e+0 -0.19134172
v -0.35355339 0.0000000e+0 -0.35355339
v -0.19134172 0.0000000e+0 -0.46193977
v -1.0726827e-16 0.0000000e+0 -0.50000000
v 0.19134172 0.0000000e+0 -0.46193977
v 0.35355339 0.0000000e+0 -0.35355339
v 0.46193977 0.0000000e+0 -0.19134172
v -1.5419764e-17 1.00000000 4.5268590e-17
v -1.5419764e-17 -1.00000000 9.1561436e-16
vn 1.00000000 0.0000000e+0 -1.3395563e-16
vn 0.92387953 9.4556917e-17 0.38268343
vn 0.70710678 2.2063281e-16 0.70710678
vn 0.38268343 3.3094921e-16 0.92387953
vn 0.0000000e+0 3.6246818e-16 1.00000000
vn -0.38268343 2.9943024e-16 0.92387953
vn -0.70710678 2.5215178e-16 0.70710678
vn -0.92387953 1.1031640e-16 0.38268343
vn -1.00000000 -3.1518972e-17 1.4183537e-16
vn -0.92387953 -1.4183537e-16 -0.38268343
vn -0.70710678 -2.0487332e-16 -0.70710678
vn -0.38268343 -2.9943024e-16 -0.92387953
vn -1.2607589e-16 -3.4670869e-16 -1.00000000
vn 0.38268343 -3.1518972e-16 -0.92387953
vn 0.70710678 -2.3639229e-16 -0.70710678
vn 0.92387953 -6.3037944e-17 -0.38268343
vn -1.5759486e-17 1.00000000 5.5158201e-17
vn -9.4556917e-17 -1.00000000 2.4821191e-16
g cone2_default
usemtl default
s 1
f 87//87 103//103 88//88
f 87//87 104//104 102//102
f 88//88 103//103 89//89
f 88//88 104//104 87//87
f 89//89 103//103 90//90
f 89//89 104//104 88//88
f 90//90 103//103 91//91
f 90//90 104//104 89//89
f 91//91 103//103 92//92
f 91//91 104//104 90//90
f 92//92 103//103 93//93
f 92//92 104//104 91//91
f 93//93 103//103 94//94
f 93//93 104//104 92//92
f 94//94 103//103 95//95
f 94//94 104//104 93//93
f 95//95 103//103 96//96
f 95//95 104//104 94//94
f 96//96 103//103 97//97
f 96//96 104//104 95//95
f 97//97 103//103 98//98
f 97//97 104//104 96//96
f 98//98 103//103 99//99
f 98//98 104//104 97//97
f 99//99 103//103 100//100
f 99//99 104//104 98//98
f 100//100 103//103 101//101
f 100//100 104//104 99//99
f 101//101 103//103 102//102
f 101//101 104//104 100//100
f 102//102 103//103 87//87
f 102//102 104//104 101//101
o sphere1
#86 vertices, 168 faces
v 0.19134172 -1.53806023 3.7518438e-18
v 0.16570679 -1.53806023 9.5670858e-2
v 9.5670858e-2 -1.53806023 0.16570679
v 3.3743255e-17 -1.53806023 0.19134172
v -9.5670858e-2 -1.53806023 0.16570679
v -0.16570679 -1.53806023 9.5670858e-2
v -0.19134172 -1.53806023 2.7184446e-17
v -0.16570679 -1.53806023 -9.5670858e-2
v -9.5670858e-2 -1.53806023 -0.16570679
v -1.3121949e-17 -1.53806023 -0.19134172
v 9.5670858e-2 -1.53806023 -0.16570679
v 0.16570679 -1.53806023 -9.5670858e-2
v 0.35355339 -1.64644661 3.7518438e-18
v 0.30618622 -1.64644661 0.17677670
v 0.17677670 -1.64644661 0.30618622
v 4.3675855e-17 -1.64644661 0.35355339
v -0.17677670 -1.64644661 0.30618622
v -0.30618622 -1.64644661 0.17677670
v -0.35355339 -1.64644661 4.7049647e-17
v -0.30618622 -1.64644661 -0.17677670
v -0.17677670 -1.64644661 -0.30618622
v -4.2919750e-17 -1.64644661 -0.35355339
v 0.17677670 -1.64644661 -0.30618622
v 0.30618622 -1.64644661 -0.17677670
v 0.46193977 -1.80865828 3.7518438e-18
v 0.40005157 -1.80865828 0.23096988
v 0.23096988 -1.80865828 0.40005157
v 5.0312607e-17 -1.80865828 0.46193977
v -0.23096988 -1.80865828 0.40005157
v -0.40005157 -1.80865828 0.23096988
v -0.46193977 -1.80865828 6.0323149e-17
v -0.40005157 -1.80865828 -0.23096988
v -0.23096988 -1.80865828 -0.40005157
v -6.2830005e-17 -1.80865828 -0.46193977
v 0.23096988 -1.80865828 -0.40005157
v 0.40005157 -1.80865828 -0.23096988
v 0.50000000 -2.00000000 3.7518438e-18
v 0.43301270 -2.00000000 0.25000000
v 0.25000000 -2.00000000 0.43301270
v 5.2643124e-17 -2.00000000 0.50000000
v -0.25000000 -2.00000000 0.43301270
v -0.43301270 -2.00000000 0.25000000
v -0.50000000 -2.00000000 6.4984184e-17
v -0.43301270 -2.00000000 -0.25000000
v -0.25000000 -2.00000000 -0.43301270
v -6.9821556e-17 -2.00000000 -0.50000000
v 0.25000000 -2.00000000 -0.43301270
v 0.43301270 -2.00000000 -0.25000000
v 0.46193977 -2.19134172 3.7518438e-18
v 0.40005157 -2.19134172 0.23096988
v 0.23096988 -2.19134172 0.40005157
v 5.0312607e-17 -2.19134172 0.46193977
v -0.23096988 -2.19134172 0.40005157
v -0.40005157 -2.19134172 0.23096988
v -0.46193977 -2.19134172 6.0323149e-17
v -0.40005157 -2.19134172 -0.23096988
v -0.23096988 -2.19134172 -0.40005157
v -6.2830005e-17 -2.19134172 -0.46193977
v 0.23096988 -2.19134172 -0.40005157
v 0.40005157 -2.19134172 -0.23096988
v 0.35355339 -2.35355339 3.7518438e-18
v 0.30618622 -2.35355339 0.17677670
v 0.17677670 -2.35355339 0.30618622
v 4.3675855e-17 -2.35355339 0.35355339
v -0.17677670 -2.35355339 0.30618622
v -0.30618622 -2.35355339 0.17677670
v -0.35355339 -2.35355339 4.7049647e-17
v -0.30618622 -2.35355339 -0.17677670
v -0.17677670 -2.35355339 -0.30618622
v -4.2919750e-17 -2.35355339 -0.35355339
v 0.17677670 -2.35355339 -0.30618622
v 0.30618622 -2.35355339 -0.17677670
v 0.19134172 -2.46193977 3.7518438e-18
v 0.16570679 -2.46193977 9.5670858e-2
v 9.5670858e-2 -2.46193977 0.16570679
v 3.3743255e-17 -2.46193977 0.19134172
v -9.5670858e-2 -2.46193977 0.16570679
v -0.16570679 -2.46193977 9.5670858e-2
v -0.19134172 -2.46193977 2.7184446e-17
v -0.16570679 -2.46193977 -9.5670858e-2
v -9.5670858e-2 -2.46193977 -0.16570679
v -1.3121949e-17 -2.46193977 -0.19134172
v 9.5670858e-2 -2.46193977 -0.16570679
v 0.16570679 -2.46193977 -9.5670858e-2
v 2.2026954e-17 -1.50000000 3.7518438e-18
v 2.2026954e-17 -2.50000000 3.7518438e-18
vn 0.44220927 0.89691190 -4.5059508e-16
vn 0.33064991 0.92424429 0.19090082
vn 0.22110463 0.89691190 0.38296446
vn -9.2540223e-17 0.92424429 0.38180163
vn -0.22110463 0.89691190 0.38296446
vn -0.33064991 0.92424429 0.19090082
vn -0.44220927 0.89691190 4.7905372e-16
vn -0.33064991 0.92424429 -0.19090082
vn -0.22110463 0.89691190 -0.38296446
vn -4.2710872e-17 0.92424429 -0.38180163
vn 0.22110463 0.89691190 -0.38296446
vn 0.33064991 0.92424429 -0.19090082
vn 0.70617349 0.70803885 -4.7521463e-16
vn 0.61156418 0.70803885 0.35308674
vn 0.35308674 0.70803885 0.61156418
vn -3.6001108e-17 0.70803885 0.70617349
vn -0.35308674 0.70803885 0.61156418
vn -0.61156418 0.70803885 0.35308674
vn -0.70617349 0.70803885 -5.7601773e-17
vn -0.61156418 0.70803885 -0.35308674
vn -0.35308674 0.70803885 -0.61156418
vn -2.4120742e-16 0.70803885 -0.70617349
vn 0.35308674 0.70803885 -0.61156418
vn 0.61156418 0.70803885 -0.35308674
vn 0.92353014 0.38352586 -3.1674623e-16
vn 0.79980056 0.38352586 0.46176507
vn 0.46176507 0.38352586 0.79980056
vn -1.6019349e-16 0.38352586 0.92353014
vn -0.46176507 0.38352586 0.79980056
vn -0.79980056 0.38352586 0.46176507
vn -0.92353014 0.38352586 1.1650436e-16
vn -0.79980056 0.38352586 -0.46176507
vn -0.46176507 0.38352586 -0.79980056
vn -5.9708484e-16 0.38352586 -0.92353014
vn 0.46176507 0.38352586 -0.79980056
vn 0.79980056 0.38352586 -0.46176507
vn 1.00000000 -1.0972598e-16 -2.7797247e-16
vn 0.86602540 -2.9260260e-17 0.50000000
vn 0.50000000 -2.9260260e-17 0.86602540
vn 3.5843819e-16 -9.5095846e-17 1.00000000
vn -0.50000000 -8.0465716e-17 0.86602540
vn -0.86602540 -1.2435611e-16 0.50000000
vn -1.00000000 -9.5095846e-17 4.5353404e-16
vn -0.86602540 -1.2801364e-16 -0.50000000
vn -0.50000000 -1.6824650e-16 -0.86602540
vn -2.9991767e-16 -1.3532870e-16 -1.00000000
vn 0.50000000 8.0465716e-17 -0.86602540
vn 0.86602540 -1.1338351e-16 -0.50000000
vn 0.92353014 -0.38352586 -2.1116415e-16
vn 0.79980056 -0.38352586 0.46176507
vn 0.46176507 -0.38352586 0.79980056
vn -6.5533702e-17 -0.38352586 0.92353014
vn -0.46176507 -0.38352586 0.79980056
vn -0.79980056 -0.38352586 0.46176507
vn -0.92353014 -0.38352586 1.1286360e-16
vn -0.79980056 -0.38352586 -0.46176507
vn -0.46176507 -0.38352586 -0.79980056
vn -5.0970657e-17 -0.38352586 -0.92353014
vn 0.46176507 -0.38352586 -0.79980056
vn 0.79980056 -0.38352586 -0.46176507
vn 0.70617349 -0.70803885 -4.9681529e-16
vn 0.61156418 -0.70803885 0.35308674
vn 0.35308674 -0.70803885 0.61156418
vn -1.5120465e-16 -0.70803885 0.70617349
vn -0.35308674 -0.70803885 0.61156418
vn -0.61156418 -0.70803885 0.35308674
vn -0.70617349 -0.70803885 -7.2002216e-17
vn -0.61156418 -0.70803885 -0.35308674
vn -0.35308674 -0.70803885 -0.61156418
vn -2.3040709e-16 -0.70803885 -0.70617349
vn 0.35308674 -0.70803885 -0.61156418
vn 0.61156418 -0.70803885 -0.35308674
vn 0.44220927 -0.89691190 -3.2253122e-16
vn 0.33064991 -0.92424429 0.19090082
vn 0.22110463 -0.89691190 0.38296446
vn -2.1355436e-17 -0.92424429 0.38180163
vn -0.22110463 -0.89691190 0.38296446
vn -0.33064991 -0.92424429 0.19090082
vn -0.44220927 -0.89691190 1.1952627e-15
vn -0.33064991 -0.92424429 -0.19090082
vn -0.22110463 -0.89691190 -0.38296446
vn -2.8473915e-16 -0.92424429 -0.38180163
vn 0.22110463 -0.89691190 -0.38296446
vn 0.33064991 -0.92424429 -0.19090082
vn -2.3614982e-17 1.00000000 -1.8124499e-16
vn -1.4168989e-17 -1.00000000 2.5799368e-16
g sphere1_default
usemtl default
s 1
f 105//105 118//118 117//117
f 105//105 128//128 116//116
f 105//105 189//189 106//106
f 106//106 118//118 105//105
f 106//106 189//189 107//107
f 107//107 118//118 106//106
f 107//107 120//120 119//119
f 107//107 189//189 108//108
f 108//108 120//120 107//107
f 108//108 189//189 109//109
f 109//109 120//120 108//108
f 109//109 122//122 121//121
f 109//109 189//189 110//110
f 110//110 122//122 109//109
f 110//110 189//189 111//111
f 111//111 122//122 110//110
f 111//111 124//124 123//123
f 111//111 189//189 112//112
f 112//112 124//124 111//111
f 112//112 189//189 113//113
f 113//113 124//124 112//112
f 113//113 126//126 125//125
f 113//113 189//189 114//114
f 114//114 126//126 113//113
f 114//114 189//189 115//115
f 115//115 126//126 114//114
f 115//115 128//128 127//127
f 115//115 189//189 116//116
f 116//116 128//128 115//115
f 116//116 189//189 105//105
f 117//117 128//128 105//105
f 117//117 129//129 128//128
f 118//118 129//129 117//117
f 118//118 131//131 130//130
f 119//119 118//118 107//107
f 119//119 131//131 118//118
f 120//120 131//131 119//119
f 120//120 133//133 132//132
f 121//121 120//120 109//109
f 121//121 133//133 120//120
f 122//122 133//133 121//121
f 122//122 135//135 134//134
f 123//123 122//122 111//111
f 123//123 135//135 122//122
f 124//124 135//135 123//123
f 124//124 137//137 136//136
f 125//125 124//124 113//113
f 125//125 137//137 124//124
f 126//126 137//137 125//125
f 126//126 139//139 138//138
f 127//127 126//126 115//115
f 127//127 139//139 126//126
f 128//128 129//129 140//140
f 128//128 139//139 127//127
f 129//129 142//142 141//141
f 129//129 152//152 140//140
f 130//130 129//129 118//118
f 130//130 142//142 129//129
f 131//131 142//142 130//130
f 131//131 144//144 143//143
f 132//132 131//131 120//120
f 132//132 144//144 131//131
f 133//133 144//144 132//132
f 133//133 146//146 145//145
f 134//134 133//133 122//122
f 134//134 146//146 133//133
f 135//135 146//146 134//134
f 135//135 148//148 147//147
f 136//136 135//135 124//124
f 136//136 148//148 135//135
f 137//137 148//148 136//136
f 137//137 150//150 149//149
f 138//138 137//137 126//126
f 138//138 150//150 137//137
f 139//139 150//150 138//138
f 139//139 152//152 151//151
f 140//140 139//139 128//128
f 140//140 152//152 139//139
f 141//141 152//152 129//129
f 141//141 153//153 152//152
f 142//142 153//153 141//141
f 142//142 155//155 154//154
f 143//143 142//142 131//131
f 143//143 155//155 142//142
f 144//144 155//155 143//143
f 144//144 157//157 156//156
f 145//145 144//144 133//133
f 145//145 157//157 144//144
f 146//146 157//157 145//145
f 146//146 159//159 158//158
f 147//147 146//146 135//135
f 147//147 159//159 146//146
f 148//148 159//159 147//147
f 148//148 161//161 160//160
f 149//149 148//148 137//137
f 149//149 161//161 148//148
f 150//150 161//161 149//149
f 150//150 163//163 162//162
f 151//151 150//150 139//139
f 151//151 163//163 150//150
f 152//152 153//153 164//164
f 152//152 163//163 151//151
f 153//153 166//166 165//165
f 153//153 176//176 164//164
f 154//154 153//153 142//142
f 154//154 166//166 153//153
f 155//155 166//166 154//154
f 155//155 168//168 167//167
f 156//156 155//155 144//144
f 156//156 168//168 155//155
f 157//157 168//168 156//156
f 157//157 170//170 169//169
f 158//158 157//157 146//146
f 158//158 170//170 157//157
f 159//159 170//170 158//158
f 159//159 172//172 171//171
f 160//160 159//159 148//148
f 160//160 172//172 159//159
f 161//161 172//172 160//160
f 161//161 174//174 173//173
f 162//162 161//161 150//150
f 162//162 174//174 161//161
f 163//163 174//174 162//162
f 163//163 176//176 175//175
f 164//164 163//163 152//152
f 164//164 176//176 163//163
f 165//165 176//176 153//153
f 165//165 177//177 176//176
f 166//166 177//177 165//165
f 166//166 179//179 178//178
f 167//167 166//166 155//155
f 167//167 179//179 166//166
f 168//168 179//179 167//167
f 168//168 181//181 180//180
f 169//169 168//168 157//157
f 169//169 181//181 168//168
f 170//170 181//181 169//169
f 170//170 183//183 182//182
f 171//171 170//170 159//159
f 171//171 183//183 170//170
f 172//172 183//183 171//171
f 172//172 185//185 184//184
f 173//173 172//172 161//161
f 173//173 185//185 172//172
f 174//174 185//185 173//173
f 174//174 187//187 186//186
f 175//175 174//174 163//163
f 175//175 187//187 174//174
f 176//176 177//177 188//188
f 176//176 187//187 175//175
f 177//177 190//190 188//188
f 178//178 177//177 166//166
f 178//178 190//190 177//177
f 179//179 190//190 178//178
f 180//180 179//179 168//168
f 180//180 190//190 179//179
f 181//181 190//190 180//180
f 182//182 181//181 170//170
f 182//182 190//190 181//181
f 183//183 190//190 182//182
f 184//184 183//183 172//172
f 184//184 190//190 183//183
f 185//185 190//190 184//184
f 186//186 185//185 174//174
f 186//186 190//190 185//185
f 187//187 190//190 186//186
f 188//188 187//187 176//176
f 188//188 190//190 187//187
