# Exported from Wings 3D 2.4.1
mtllib cone_up.mtl
o cone2_copy4
#17 vertices, 30 faces
v 0.50000000 0.35000000 1.7880519e-17
v 0.46193977 0.35000000 0.19134172
v 0.35355339 0.35000000 0.35355339
v 0.19134172 0.35000000 0.46193977
v 1.5196406e-17 0.35000000 0.50000000
v -0.19134172 0.35000000 0.46193977
v -0.35355339 0.35000000 0.35355339
v -0.46193977 0.35000000 0.19134172
v -0.50000000 0.35000000 7.9112859e-17
v -0.46193977 0.35000000 -0.19134172
v -0.35355339 0.35000000 -0.35355339
v -0.19134172 0.35000000 -0.46193977
v -1.0726827e-16 0.35000000 -0.50000000
v 0.19134172 0.35000000 -0.46193977
v 0.35355339 0.35000000 -0.35355339
v 0.46193977 0.35000000 -0.19134172
v -1.5419764e-17 1.35000000 -2.2704884e-16
vn 0.99770979 -6.7640061e-2 -1.1663290e-16
vn 0.59046943 -0.76910745 0.24458044
vn 0.45192573 -0.76910745 0.45192573
vn 0.24458044 -0.76910745 0.59046943
vn 1.4707301e-17 -0.76910745 0.63911950
vn -0.24458044 -0.76910745 0.59046943
vn -0.45192573 -0.76910745 0.45192573
vn -0.77971445 -0.53641108 0.32296830
vn -0.99770979 -6.7640061e-2 3.0789872e-16
vn -0.59046943 -0.76910745 -0.24458044
vn -0.45192573 -0.76910745 -0.45192573
vn -0.24458044 -0.76910745 -0.59046943
vn -8.6014648e-17 -0.76910745 -0.63911950
vn 0.24458044 -0.76910745 -0.59046943
vn 0.45192573 -0.76910745 -0.45192573
vn 0.77971445 -0.53641108 -0.32296830
vn -7.8797431e-17 1.00000000 -2.6791126e-16
g cone2_copy4_default
usemtl default
s 1
f 1//1 17//17 2//2
f 2//2 16//16 1//1
f 2//2 17//17 3//3
f 3//3 15//15 2//2
f 3//3 17//17 4//4
f 4//4 14//14 3//3
f 4//4 17//17 5//5
f 5//5 13//13 4//4
f 5//5 17//17 6//6
f 6//6 12//12 5//5
f 6//6 17//17 7//7
f 7//7 11//11 6//6
f 7//7 17//17 8//8
f 8//8 10//10 7//7
f 8//8 17//17 9//9
f 9//9 10//10 8//8
f 9//9 17//17 10//10
f 10//10 17//17 11//11
f 11//11 7//7 10//10
f 11//11 17//17 12//12
f 12//12 6//6 11//11
f 12//12 17//17 13//13
f 13//13 5//5 12//12
f 13//13 17//17 14//14
f 14//14 4//4 13//13
f 14//14 17//17 15//15
f 15//15 3//3 14//14
f 15//15 17//17 16//16
f 16//16 2//2 15//15
f 16//16 17//17 1//1
