# Exported from Wings 3D 2.4.1
mtllib cylinder.mtl
o Cylinder2
#32 vertices, 60 faces
v 0.50000000 1.00000000 0.0000000e+0
v 0.46193977 1.00000000 0.19134172
v 0.35355339 1.00000000 0.35355339
v 0.19134172 1.00000000 0.46193977
v 3.0616170e-17 1.00000000 0.50000000
v -0.19134172 1.00000000 0.46193977
v -0.35355339 1.00000000 0.35355339
v -0.46193977 1.00000000 0.19134172
v -0.50000000 1.00000000 6.1232340e-17
v -0.46193977 1.00000000 -0.19134172
v -0.35355339 1.00000000 -0.35355339
v -0.19134172 1.00000000 -0.46193977
v -9.1848510e-17 1.00000000 -0.50000000
v 0.19134172 1.00000000 -0.46193977
v 0.35355339 1.00000000 -0.35355339
v 0.46193977 1.00000000 -0.19134172
v 0.50000000 -1.00000000 0.0000000e+0
v 0.46193977 -1.00000000 0.19134172
v 0.35355339 -1.00000000 0.35355339
v 0.19134172 -1.00000000 0.46193977
v 3.0616170e-17 -1.00000000 0.50000000
v -0.19134172 -1.00000000 0.46193977
v -0.35355339 -1.00000000 0.35355339
v -0.46193977 -1.00000000 0.19134172
v -0.50000000 -1.00000000 6.1232340e-17
v -0.46193977 -1.00000000 -0.19134172
v -0.35355339 -1.00000000 -0.35355339
v -0.19134172 -1.00000000 -0.46193977
v -9.1848510e-17 -1.00000000 -0.50000000
v 0.19134172 -1.00000000 -0.46193977
v 0.35355339 -1.00000000 -0.35355339
v 0.46193977 -1.00000000 -0.19134172
vn 0.89090915 0.45418155 -1.2606070e-16
vn 0.82309273 0.45418155 0.34093617
vn 0.38696817 0.83696551 0.38696817
vn 0.30398942 0.60744384 0.73389537
vn 0.0000000e+0 0.83696551 0.54725564
vn -0.30398942 0.60744384 0.73389537
vn -0.38696817 0.83696551 0.38696817
vn -0.73389537 0.60744384 0.30398942
vn -0.89090915 0.45418155 1.1345463e-16
vn -0.82309273 0.45418155 -0.34093617
vn -0.38696817 0.83696551 -0.38696817
vn -0.30398942 0.60744384 -0.73389537
vn 0.0000000e+0 0.83696551 -0.54725564
vn 0.30398942 0.60744384 -0.73389537
vn 0.38696817 0.83696551 -0.38696817
vn 0.73389537 0.60744384 -0.30398942
vn 0.96901550 -0.24699991 -1.3711249e-16
vn 0.50559828 -0.83696551 0.20942567
vn 0.56169920 -0.60744384 0.56169920
vn 0.20942567 -0.83696551 0.50559828
vn 0.0000000e+0 -0.60744384 0.79436263
vn -0.20942567 -0.83696551 0.50559828
vn -0.56169920 -0.60744384 0.56169920
vn -0.64691385 -0.71393252 0.26796049
vn -0.96901550 -0.24699991 1.2340124e-16
vn -0.50559828 -0.83696551 -0.20942567
vn -0.56169920 -0.60744384 -0.56169920
vn -0.20942567 -0.83696551 -0.50559828
vn -1.1239969e-16 -0.60744384 -0.79436263
vn 0.20942567 -0.83696551 -0.50559828
vn 0.56169920 -0.60744384 -0.56169920
vn 0.64691385 -0.71393252 -0.26796049
g Cylinder2_default
usemtl default
s 1
f 1//1 16//16 2//2
f 1//1 17//17 16//16
f 2//2 16//16 3//3
f 2//2 17//17 1//1
f 2//2 19//19 18//18
f 3//3 15//15 4//4
f 3//3 19//19 2//2
f 4//4 14//14 5//5
f 4//4 19//19 3//3
f 4//4 21//21 20//20
f 5//5 13//13 6//6
f 5//5 21//21 4//4
f 6//6 12//12 7//7
f 6//6 21//21 5//5
f 6//6 23//23 22//22
f 7//7 11//11 8//8
f 7//7 23//23 6//6
f 8//8 10//10 9//9
f 8//8 23//23 7//7
f 8//8 25//25 24//24
f 9//9 25//25 8//8
f 10//10 8//8 11//11
f 10//10 25//25 9//9
f 10//10 27//27 26//26
f 11//11 7//7 12//12
f 11//11 27//27 10//10
f 12//12 6//6 13//13
f 12//12 27//27 11//11
f 12//12 29//29 28//28
f 13//13 5//5 14//14
f 13//13 29//29 12//12
f 14//14 4//4 15//15
f 14//14 29//29 13//13
f 14//14 31//31 30//30
f 15//15 3//3 16//16
f 15//15 31//31 14//14
f 16//16 17//17 32//32
f 16//16 31//31 15//15
f 18//18 17//17 2//2
f 18//18 32//32 17//17
f 19//19 31//31 18//18
f 20//20 19//19 4//4
f 20//20 30//30 19//19
f 21//21 29//29 20//20
f 22//22 21//21 6//6
f 22//22 28//28 21//21
f 23//23 27//27 22//22
f 24//24 23//23 8//8
f 24//24 26//26 23//23
f 25//25 26//26 24//24
f 26//26 25//25 10//10
f 27//27 23//23 26//26
f 28//28 22//22 27//27
f 28//28 27//27 12//12
f 29//29 21//21 28//28
f 30//30 20//20 29//29
f 30//30 29//29 14//14
f 31//31 19//19 30//30
f 32//32 18//18 31//31
f 32//32 31//31 16//16
