# Exported from Wings 3D 2.4.1
mtllib three_balls_minesweeping.mtl
o sphere1_copy5
#86 vertices, 168 faces
v -2.00000000 0.46193977 -0.19134172
v -1.90432914 0.46193977 -0.16570679
v -1.83429321 0.46193977 -9.5670858e-2
v -1.80865828 0.46193977 -3.7622436e-16
v -1.83429321 0.46193977 9.5670858e-2
v -1.90432914 0.46193977 0.16570679
v -2.00000000 0.46193977 0.19134172
v -2.09567086 0.46193977 0.16570679
v -2.16570679 0.46193977 9.5670858e-2
v -2.19134172 0.46193977 -3.5279176e-16
v -2.16570679 0.46193977 -9.5670858e-2
v -2.09567086 0.46193977 -0.16570679
v -2.00000000 0.35355339 -0.35355339
v -1.82322330 0.35355339 -0.30618622
v -1.69381378 0.35355339 -0.17677670
v -1.64644661 0.35355339 -3.8991912e-16
v -1.69381378 0.35355339 0.17677670
v -1.82322330 0.35355339 0.30618622
v -2.00000000 0.35355339 0.35355339
v -2.17677670 0.35355339 0.30618622
v -2.30618622 0.35355339 0.17677670
v -2.35355339 0.35355339 -3.4662132e-16
v -2.30618622 0.35355339 -0.17677670
v -2.17677670 0.35355339 -0.30618622
v -2.00000000 0.19134172 -0.46193977
v -1.76903012 0.19134172 -0.40005157
v -1.59994843 0.19134172 -0.23096988
v -1.53806023 0.19134172 -4.1041477e-16
v -1.59994843 0.19134172 0.23096988
v -1.76903012 0.19134172 0.40005157
v -2.00000000 0.19134172 0.46193977
v -2.23096988 0.19134172 0.40005157
v -2.40005157 0.19134172 0.23096988
v -2.46193977 0.19134172 -3.5384347e-16
v -2.40005157 0.19134172 -0.23096988
v -2.23096988 0.19134172 -0.40005157
v -2.00000000 -1.8952693e-16 -0.50000000
v -1.75000000 -1.6640304e-16 -0.43301270
v -1.56698730 -1.6640304e-16 -0.25000000
v -1.50000000 -1.8952693e-16 -4.3459105e-16
v -1.56698730 -2.2957868e-16 0.25000000
v -1.75000000 -2.7582646e-16 0.43301270
v -2.00000000 -3.1587821e-16 0.50000000
v -2.25000000 -3.3900210e-16 0.43301270
v -2.43301270 -3.3900210e-16 0.25000000
v -2.50000000 -3.1587821e-16 -3.7335871e-16
v -2.43301270 -2.7582646e-16 -0.25000000
v -2.25000000 -2.2957868e-16 -0.43301270
v -2.00000000 -0.19134172 -0.46193977
v -1.76903012 -0.19134172 -0.40005157
v -1.59994843 -0.19134172 -0.23096988
v -1.53806023 -0.19134172 -4.5876732e-16
v -1.59994843 -0.19134172 0.23096988
v -1.76903012 -0.19134172 0.40005157
v -2.00000000 -0.19134172 0.46193977
v -2.23096988 -0.19134172 0.40005157
v -2.40005157 -0.19134172 0.23096988
v -2.46193977 -0.19134172 -4.0219601e-16
v -2.40005157 -0.19134172 -0.23096988
v -2.23096988 -0.19134172 -0.40005157
v -2.00000000 -0.35355339 -0.35355339
v -1.82322330 -0.35355339 -0.30618622
v -1.69381378 -0.35355339 -0.17677670
v -1.64644661 -0.35355339 -4.7926297e-16
v -1.69381378 -0.35355339 0.17677670
v -1.82322330 -0.35355339 0.30618622
v -2.00000000 -0.35355339 0.35355339
v -2.17677670 -0.35355339 0.30618622
v -2.30618622 -0.35355339 0.17677670
v -2.35355339 -0.35355339 -4.3596517e-16
v -2.30618622 -0.35355339 -0.17677670
v -2.17677670 -0.35355339 -0.30618622
v -2.00000000 -0.46193977 -0.19134172
v -1.90432914 -0.46193977 -0.16570679
v -1.83429321 -0.46193977 -9.5670858e-2
v -1.80865828 -0.46193977 -4.9295773e-16
v -1.83429321 -0.46193977 9.5670858e-2
v -1.90432914 -0.46193977 0.16570679
v -2.00000000 -0.46193977 0.19134172
v -2.09567086 -0.46193977 0.16570679
v -2.16570679 -0.46193977 9.5670858e-2
v -2.19134172 -0.46193977 -4.6952513e-16
v -2.16570679 -0.46193977 -9.5670858e-2
v -2.09567086 -0.46193977 -0.16570679
v -2.00000000 0.50000000 -3.7141540e-16
v -2.00000000 -0.50000000 -4.9776669e-16
vn -2.4189841e-16 0.89691190 -0.44220927
vn 0.19090082 0.92424429 -0.33064991
vn 0.38296446 0.89691190 -0.22110463
vn 0.38180163 0.92424429 -4.9829351e-17
vn 0.38296446 0.89691190 0.22110463
vn 0.19090082 0.92424429 0.33064991
vn -1.4229318e-16 0.89691190 0.44220927
vn -0.19090082 0.92424429 0.33064991
vn -0.38296446 0.89691190 0.22110463
vn -0.38180163 0.92424429 -1.6372501e-16
vn -0.38296446 0.89691190 -0.22110463
vn -0.19090082 0.92424429 -0.33064991
vn -1.2240377e-16 0.70803885 -0.70617349
vn 0.35308674 0.70803885 -0.61156418
vn 0.61156418 0.70803885 -0.35308674
vn 0.70617349 0.70803885 -1.4400443e-17
vn 0.61156418 0.70803885 0.35308674
vn 0.35308674 0.70803885 0.61156418
vn 3.0240931e-16 0.70803885 0.70617349
vn -0.35308674 0.70803885 0.61156418
vn -0.61156418 0.70803885 0.35308674
vn -0.70617349 0.70803885 6.1201884e-17
vn -0.61156418 0.70803885 -0.35308674
vn -0.35308674 0.70803885 -0.61156418
vn -2.2572720e-16 0.38352586 -0.92353014
vn 0.46176507 0.38352586 -0.79980056
vn 0.79980056 0.38352586 -0.46176507
vn 0.92353014 0.38352586 0.0000000e+0
vn 0.79980056 0.38352586 0.46176507
vn 0.46176507 0.38352586 0.79980056
vn 1.6019349e-16 0.38352586 0.92353014
vn -0.46176507 0.38352586 0.79980056
vn -0.79980056 0.38352586 0.46176507
vn -0.92353014 0.38352586 7.8640443e-16
vn -0.79980056 0.38352586 -0.46176507
vn -0.46176507 0.38352586 -0.79980056
vn -3.9501351e-16 2.7797247e-16 -1.00000000
vn 0.50000000 2.7431494e-16 -0.86602540
vn 0.86602540 7.3150651e-18 -0.50000000
vn 1.00000000 -5.8520521e-17 -1.9019169e-16
vn 0.86602540 -5.7057508e-16 0.50000000
vn 0.50000000 2.1945195e-16 0.86602540
vn 4.3890391e-16 -2.1945195e-17 1.00000000
vn -0.50000000 2.1945195e-16 0.86602540
vn -0.86602540 -7.3150651e-18 0.50000000
vn -1.00000000 -2.8894507e-16 5.9983534e-16
vn -0.86602540 2.9260260e-17 -0.50000000
vn -0.50000000 6.9493118e-17 -0.86602540
vn -1.0922284e-16 -0.38352586 -0.92353014
vn 0.46176507 -0.38352586 -0.79980056
vn 0.79980056 -0.38352586 -0.46176507
vn 0.92353014 -0.38352586 1.5291197e-16
vn 0.79980056 -0.38352586 0.46176507
vn 0.46176507 -0.38352586 0.79980056
vn 2.9126090e-16 -0.38352586 0.92353014
vn -0.46176507 -0.38352586 0.79980056
vn -0.79980056 -0.38352586 0.46176507
vn -0.92353014 -0.38352586 6.6261855e-16
vn -0.79980056 -0.38352586 -0.46176507
vn -0.46176507 -0.38352586 -0.79980056
vn -5.0401551e-17 -0.70803885 -0.70617349
vn 0.35308674 -0.70803885 -0.61156418
vn 0.61156418 -0.70803885 -0.35308674
vn 0.70617349 -0.70803885 -3.6001108e-18
vn 0.61156418 -0.70803885 0.35308674
vn 0.35308674 -0.70803885 0.61156418
vn 3.0960953e-16 -0.70803885 0.70617349
vn -0.35308674 -0.70803885 0.61156418
vn -0.61156418 -0.70803885 0.35308674
vn -0.70617349 -0.70803885 -4.6801440e-17
vn -0.61156418 -0.70803885 -0.35308674
vn -0.35308674 -0.70803885 -0.61156418
vn 1.6126561e-16 -0.89691190 -0.44220927
vn 0.19090082 -0.92424429 -0.33064991
vn 0.38296446 -0.89691190 -0.22110463
vn 0.38180163 -0.92424429 -8.5421744e-17
vn 0.38296446 -0.89691190 0.22110463
vn 0.19090082 -0.92424429 0.33064991
vn 2.7035705e-16 -0.89691190 0.44220927
vn -0.19090082 -0.92424429 0.33064991
vn -0.38296446 -0.89691190 0.22110463
vn -0.38180163 -0.92424429 7.8303265e-17
vn -0.38296446 -0.89691190 -0.22110463
vn -0.19090082 -0.92424429 -0.33064991
vn -2.3614982e-18 1.00000000 -6.3760452e-17
vn 3.0640439e-16 -1.00000000 -9.2098430e-17
g sphere1_copy5_default
usemtl default
s 1
f 1//1 14//14 13//13
f 1//1 24//24 12//12
f 1//1 85//85 2//2
f 2//2 14//14 1//1
f 2//2 85//85 3//3
f 3//3 14//14 2//2
f 3//3 16//16 15//15
f 3//3 85//85 4//4
f 4//4 16//16 3//3
f 4//4 85//85 5//5
f 5//5 16//16 4//4
f 5//5 18//18 17//17
f 5//5 85//85 6//6
f 6//6 18//18 5//5
f 6//6 85//85 7//7
f 7//7 18//18 6//6
f 7//7 20//20 19//19
f 7//7 85//85 8//8
f 8//8 20//20 7//7
f 8//8 85//85 9//9
f 9//9 20//20 8//8
f 9//9 22//22 21//21
f 9//9 85//85 10//10
f 10//10 22//22 9//9
f 10//10 85//85 11//11
f 11//11 22//22 10//10
f 11//11 24//24 23//23
f 11//11 85//85 12//12
f 12//12 24//24 11//11
f 12//12 85//85 1//1
f 13//13 24//24 1//1
f 13//13 25//25 24//24
f 14//14 25//25 13//13
f 14//14 27//27 26//26
f 15//15 14//14 3//3
f 15//15 27//27 14//14
f 16//16 27//27 15//15
f 16//16 29//29 28//28
f 17//17 16//16 5//5
f 17//17 29//29 16//16
f 18//18 29//29 17//17
f 18//18 31//31 30//30
f 19//19 18//18 7//7
f 19//19 31//31 18//18
f 20//20 31//31 19//19
f 20//20 33//33 32//32
f 21//21 20//20 9//9
f 21//21 33//33 20//20
f 22//22 33//33 21//21
f 22//22 35//35 34//34
f 23//23 22//22 11//11
f 23//23 35//35 22//22
f 24//24 25//25 36//36
f 24//24 35//35 23//23
f 25//25 38//38 37//37
f 25//25 48//48 36//36
f 26//26 25//25 14//14
f 26//26 38//38 25//25
f 27//27 38//38 26//26
f 27//27 40//40 39//39
f 28//28 27//27 16//16
f 28//28 40//40 27//27
f 29//29 40//40 28//28
f 29//29 42//42 41//41
f 30//30 29//29 18//18
f 30//30 42//42 29//29
f 31//31 42//42 30//30
f 31//31 44//44 43//43
f 32//32 31//31 20//20
f 32//32 44//44 31//31
f 33//33 44//44 32//32
f 33//33 46//46 45//45
f 34//34 33//33 22//22
f 34//34 46//46 33//33
f 35//35 46//46 34//34
f 35//35 48//48 47//47
f 36//36 35//35 24//24
f 36//36 48//48 35//35
f 37//37 48//48 25//25
f 37//37 49//49 48//48
f 38//38 49//49 37//37
f 38//38 51//51 50//50
f 39//39 38//38 27//27
f 39//39 51//51 38//38
f 40//40 51//51 39//39
f 40//40 53//53 52//52
f 41//41 40//40 29//29
f 41//41 53//53 40//40
f 42//42 53//53 41//41
f 42//42 55//55 54//54
f 43//43 42//42 31//31
f 43//43 55//55 42//42
f 44//44 55//55 43//43
f 44//44 57//57 56//56
f 45//45 44//44 33//33
f 45//45 57//57 44//44
f 46//46 57//57 45//45
f 46//46 59//59 58//58
f 47//47 46//46 35//35
f 47//47 59//59 46//46
f 48//48 49//49 60//60
f 48//48 59//59 47//47
f 49//49 62//62 61//61
f 49//49 72//72 60//60
f 50//50 49//49 38//38
f 50//50 62//62 49//49
f 51//51 62//62 50//50
f 51//51 64//64 63//63
f 52//52 51//51 40//40
f 52//52 64//64 51//51
f 53//53 64//64 52//52
f 53//53 66//66 65//65
f 54//54 53//53 42//42
f 54//54 66//66 53//53
f 55//55 66//66 54//54
f 55//55 68//68 67//67
f 56//56 55//55 44//44
f 56//56 68//68 55//55
f 57//57 68//68 56//56
f 57//57 70//70 69//69
f 58//58 57//57 46//46
f 58//58 70//70 57//57
f 59//59 70//70 58//58
f 59//59 72//72 71//71
f 60//60 59//59 48//48
f 60//60 72//72 59//59
f 61//61 72//72 49//49
f 61//61 73//73 72//72
f 62//62 73//73 61//61
f 62//62 75//75 74//74
f 63//63 62//62 51//51
f 63//63 75//75 62//62
f 64//64 75//75 63//63
f 64//64 77//77 76//76
f 65//65 64//64 53//53
f 65//65 77//77 64//64
f 66//66 77//77 65//65
f 66//66 79//79 78//78
f 67//67 66//66 55//55
f 67//67 79//79 66//66
f 68//68 79//79 67//67
f 68//68 81//81 80//80
f 69//69 68//68 57//57
f 69//69 81//81 68//68
f 70//70 81//81 69//69
f 70//70 83//83 82//82
f 71//71 70//70 59//59
f 71//71 83//83 70//70
f 72//72 73//73 84//84
f 72//72 83//83 71//71
f 73//73 86//86 84//84
f 74//74 73//73 62//62
f 74//74 86//86 73//73
f 75//75 86//86 74//74
f 76//76 75//75 64//64
f 76//76 86//86 75//75
f 77//77 86//86 76//76
f 78//78 77//77 66//66
f 78//78 86//86 77//77
f 79//79 86//86 78//78
f 80//80 79//79 68//68
f 80//80 86//86 79//79
f 81//81 86//86 80//80
f 82//82 81//81 70//70
f 82//82 86//86 81//81
f 83//83 86//86 82//82
f 84//84 83//83 72//72
f 84//84 86//86 83//83
o sphere1_copy4
#86 vertices, 168 faces
v 2.00000000 0.46193977 -0.19134172
v 2.09567086 0.46193977 -0.16570679
v 2.16570679 0.46193977 -9.5670858e-2
v 2.19134172 0.46193977 -1.3129500e-16
v 2.16570679 0.46193977 9.5670858e-2
v 2.09567086 0.46193977 0.16570679
v 2.00000000 0.46193977 0.19134172
v 1.90432914 0.46193977 0.16570679
v 1.83429321 0.46193977 9.5670858e-2
v 1.80865828 0.46193977 -1.0786240e-16
v 1.83429321 0.46193977 -9.5670858e-2
v 1.90432914 0.46193977 -0.16570679
v 2.00000000 0.35355339 -0.35355339
v 2.17677670 0.35355339 -0.30618622
v 2.30618622 0.35355339 -0.17677670
v 2.35355339 0.35355339 -1.4498976e-16
v 2.30618622 0.35355339 0.17677670
v 2.17677670 0.35355339 0.30618622
v 2.00000000 0.35355339 0.35355339
v 1.82322330 0.35355339 0.30618622
v 1.69381378 0.35355339 0.17677670
v 1.64644661 0.35355339 -1.0169196e-16
v 1.69381378 0.35355339 -0.17677670
v 1.82322330 0.35355339 -0.30618622
v 2.00000000 0.19134172 -0.46193977
v 2.23096988 0.19134172 -0.40005157
v 2.40005157 0.19134172 -0.23096988
v 2.46193977 0.19134172 -1.6548541e-16
v 2.40005157 0.19134172 0.23096988
v 2.23096988 0.19134172 0.40005157
v 2.00000000 0.19134172 0.46193977
v 1.76903012 0.19134172 0.40005157
v 1.59994843 0.19134172 0.23096988
v 1.53806023 0.19134172 -1.0891411e-16
v 1.59994843 0.19134172 -0.23096988
v 1.76903012 0.19134172 -0.40005157
v 2.00000000 3.1587821e-16 -0.50000000
v 2.25000000 3.3900210e-16 -0.43301270
v 2.43301270 3.3900210e-16 -0.25000000
v 2.50000000 3.1587821e-16 -1.8966169e-16
v 2.43301270 2.7582646e-16 0.25000000
v 2.25000000 2.2957868e-16 0.43301270
v 2.00000000 1.8952693e-16 0.50000000
v 1.75000000 1.6640304e-16 0.43301270
v 1.56698730 1.6640304e-16 0.25000000
v 1.50000000 1.8952693e-16 -1.2842935e-16
v 1.56698730 2.2957868e-16 -0.25000000
v 1.75000000 2.7582646e-16 -0.43301270
v 2.00000000 -0.19134172 -0.46193977
v 2.23096988 -0.19134172 -0.40005157
v 2.40005157 -0.19134172 -0.23096988
v 2.46193977 -0.19134172 -2.1383796e-16
v 2.40005157 -0.19134172 0.23096988
v 2.23096988 -0.19134172 0.40005157
v 2.00000000 -0.19134172 0.46193977
v 1.76903012 -0.19134172 0.40005157
v 1.59994843 -0.19134172 0.23096988
v 1.53806023 -0.19134172 -1.5726665e-16
v 1.59994843 -0.19134172 -0.23096988
v 1.76903012 -0.19134172 -0.40005157
v 2.00000000 -0.35355339 -0.35355339
v 2.17677670 -0.35355339 -0.30618622
v 2.30618622 -0.35355339 -0.17677670
v 2.35355339 -0.35355339 -2.3433361e-16
v 2.30618622 -0.35355339 0.17677670
v 2.17677670 -0.35355339 0.30618622
v 2.00000000 -0.35355339 0.35355339
v 1.82322330 -0.35355339 0.30618622
v 1.69381378 -0.35355339 0.17677670
v 1.64644661 -0.35355339 -1.9103581e-16
v 1.69381378 -0.35355339 -0.17677670
v 1.82322330 -0.35355339 -0.30618622
v 2.00000000 -0.46193977 -0.19134172
v 2.09567086 -0.46193977 -0.16570679
v 2.16570679 -0.46193977 -9.5670858e-2
v 2.19134172 -0.46193977 -2.4802837e-16
v 2.16570679 -0.46193977 9.5670858e-2
v 2.09567086 -0.46193977 0.16570679
v 2.00000000 -0.46193977 0.19134172
v 1.90432914 -0.46193977 0.16570679
v 1.83429321 -0.46193977 9.5670858e-2
v 1.80865828 -0.46193977 -2.2459577e-16
v 1.83429321 -0.46193977 -9.5670858e-2
v 1.90432914 -0.46193977 -0.16570679
v 2.00000000 0.50000000 -1.2648604e-16
v 2.00000000 -0.50000000 -2.5283733e-16
vn -9.9605229e-17 0.89691190 -0.44220927
vn 0.19090082 0.92424429 -0.33064991
vn 0.38296446 0.89691190 -0.22110463
vn 0.38180163 0.92424429 -4.2710872e-17
vn 0.38296446 0.89691190 0.22110463
vn 0.19090082 0.92424429 0.33064991
vn -1.8972425e-17 0.89691190 0.44220927
vn -0.19090082 0.92424429 0.33064991
vn -0.38296446 0.89691190 0.22110463
vn -0.38180163 0.92424429 -2.4202827e-16
vn -0.38296446 0.89691190 -0.22110463
vn -0.19090082 0.92424429 -0.33064991
vn -4.1041263e-16 0.70803885 -0.70617349
vn 0.35308674 0.70803885 -0.61156418
vn 0.61156418 0.70803885 -0.35308674
vn 0.70617349 0.70803885 1.4400443e-17
vn 0.61156418 0.70803885 0.35308674
vn 0.35308674 0.70803885 0.61156418
vn 2.1600665e-17 0.70803885 0.70617349
vn -0.35308674 0.70803885 0.61156418
vn -0.61156418 0.70803885 0.35308674
vn -0.70617349 0.70803885 -2.5200776e-17
vn -0.61156418 0.70803885 -0.35308674
vn -0.35308674 0.70803885 -0.61156418
vn -1.2378588e-16 0.38352586 -0.92353014
vn 0.46176507 0.38352586 -0.79980056
vn 0.79980056 0.38352586 -0.46176507
vn 0.92353014 0.38352586 1.4563045e-16
vn 0.79980056 0.38352586 0.46176507
vn 0.46176507 0.38352586 0.79980056
vn 1.2378588e-16 0.38352586 0.92353014
vn -0.46176507 0.38352586 0.79980056
vn -0.79980056 0.38352586 0.46176507
vn -0.92353014 0.38352586 5.6795875e-16
vn -0.79980056 0.38352586 -0.46176507
vn -0.46176507 0.38352586 -0.79980056
vn -2.7797247e-16 2.8528754e-16 -1.00000000
vn 0.50000000 9.8753379e-17 -0.86602540
vn 0.86602540 5.4862988e-16 -0.50000000
vn 1.00000000 1.0606844e-16 -3.1454780e-16
vn 0.86602540 0.0000000e+0 0.50000000
vn 0.50000000 -6.5835586e-17 0.86602540
vn 5.4131482e-16 7.3150651e-18 1.00000000
vn -0.50000000 -1.4630130e-16 0.86602540
vn -0.86602540 7.3150651e-18 0.50000000
vn -1.00000000 -5.8520521e-17 6.5104079e-16
vn -0.86602540 7.3150651e-18 -0.50000000
vn -0.50000000 3.9501351e-16 -0.86602540
vn 2.9126090e-17 -0.38352586 -0.92353014
vn 0.46176507 -0.38352586 -0.79980056
vn 0.79980056 -0.38352586 -0.46176507
vn 0.92353014 -0.38352586 2.1844567e-17
vn 0.79980056 -0.38352586 0.46176507
vn 0.46176507 -0.38352586 0.79980056
vn 2.1116415e-16 -0.38352586 0.92353014
vn -0.46176507 -0.38352586 0.79980056
vn -0.79980056 -0.38352586 0.46176507
vn -0.92353014 -0.38352586 7.1358920e-16
vn -0.79980056 -0.38352586 -0.46176507
vn -0.46176507 -0.38352586 -0.79980056
vn -2.4480753e-16 -0.70803885 -0.70617349
vn 0.35308674 -0.70803885 -0.61156418
vn 0.61156418 -0.70803885 -0.35308674
vn 0.70617349 -0.70803885 8.2802548e-17
vn 0.61156418 -0.70803885 0.35308674
vn 0.35308674 -0.70803885 0.61156418
vn -7.9202438e-17 -0.70803885 0.70617349
vn -0.35308674 -0.70803885 0.61156418
vn -0.61156418 -0.70803885 0.35308674
vn -0.70617349 -0.70803885 1.0800332e-16
vn -0.61156418 -0.70803885 -0.35308674
vn -0.35308674 -0.70803885 -0.61156418
vn 2.5612773e-16 -0.89691190 -0.44220927
vn 0.19090082 -0.92424429 -0.33064991
vn 0.38296446 -0.89691190 -0.22110463
vn 0.38180163 -0.92424429 -7.1184787e-17
vn 0.38296446 -0.89691190 0.22110463
vn 0.19090082 -0.92424429 0.33064991
vn 3.8893470e-16 -0.89691190 0.44220927
vn -0.19090082 -0.92424429 0.33064991
vn -0.38296446 -0.89691190 0.22110463
vn -0.38180163 -0.92424429 5.6947829e-17
vn -0.38296446 -0.89691190 -0.22110463
vn -0.19090082 -0.92424429 -0.33064991
vn -2.4913806e-16 1.00000000 1.3932839e-16
vn 1.2279791e-16 -1.00000000 7.7929441e-17
g sphere1_copy4_default
usemtl default
s 1
f 87//87 100//100 99//99
f 87//87 110//110 98//98
f 87//87 171//171 88//88
f 88//88 100//100 87//87
f 88//88 171//171 89//89
f 89//89 100//100 88//88
f 89//89 102//102 101//101
f 89//89 171//171 90//90
f 90//90 102//102 89//89
f 90//90 171//171 91//91
f 91//91 102//102 90//90
f 91//91 104//104 103//103
f 91//91 171//171 92//92
f 92//92 104//104 91//91
f 92//92 171//171 93//93
f 93//93 104//104 92//92
f 93//93 106//106 105//105
f 93//93 171//171 94//94
f 94//94 106//106 93//93
f 94//94 171//171 95//95
f 95//95 106//106 94//94
f 95//95 108//108 107//107
f 95//95 171//171 96//96
f 96//96 108//108 95//95
f 96//96 171//171 97//97
f 97//97 108//108 96//96
f 97//97 110//110 109//109
f 97//97 171//171 98//98
f 98//98 110//110 97//97
f 98//98 171//171 87//87
f 99//99 110//110 87//87
f 99//99 111//111 110//110
f 100//100 111//111 99//99
f 100//100 113//113 112//112
f 101//101 100//100 89//89
f 101//101 113//113 100//100
f 102//102 113//113 101//101
f 102//102 115//115 114//114
f 103//103 102//102 91//91
f 103//103 115//115 102//102
f 104//104 115//115 103//103
f 104//104 117//117 116//116
f 105//105 104//104 93//93
f 105//105 117//117 104//104
f 106//106 117//117 105//105
f 106//106 119//119 118//118
f 107//107 106//106 95//95
f 107//107 119//119 106//106
f 108//108 119//119 107//107
f 108//108 121//121 120//120
f 109//109 108//108 97//97
f 109//109 121//121 108//108
f 110//110 111//111 122//122
f 110//110 121//121 109//109
f 111//111 124//124 123//123
f 111//111 134//134 122//122
f 112//112 111//111 100//100
f 112//112 124//124 111//111
f 113//113 124//124 112//112
f 113//113 126//126 125//125
f 114//114 113//113 102//102
f 114//114 126//126 113//113
f 115//115 126//126 114//114
f 115//115 128//128 127//127
f 116//116 115//115 104//104
f 116//116 128//128 115//115
f 117//117 128//128 116//116
f 117//117 130//130 129//129
f 118//118 117//117 106//106
f 118//118 130//130 117//117
f 119//119 130//130 118//118
f 119//119 132//132 131//131
f 120//120 119//119 108//108
f 120//120 132//132 119//119
f 121//121 132//132 120//120
f 121//121 134//134 133//133
f 122//122 121//121 110//110
f 122//122 134//134 121//121
f 123//123 134//134 111//111
f 123//123 135//135 134//134
f 124//124 135//135 123//123
f 124//124 137//137 136//136
f 125//125 124//124 113//113
f 125//125 137//137 124//124
f 126//126 137//137 125//125
f 126//126 139//139 138//138
f 127//127 126//126 115//115
f 127//127 139//139 126//126
f 128//128 139//139 127//127
f 128//128 141//141 140//140
f 129//129 128//128 117//117
f 129//129 141//141 128//128
f 130//130 141//141 129//129
f 130//130 143//143 142//142
f 131//131 130//130 119//119
f 131//131 143//143 130//130
f 132//132 143//143 131//131
f 132//132 145//145 144//144
f 133//133 132//132 121//121
f 133//133 145//145 132//132
f 134//134 135//135 146//146
f 134//134 145//145 133//133
f 135//135 148//148 147//147
f 135//135 158//158 146//146
f 136//136 135//135 124//124
f 136//136 148//148 135//135
f 137//137 148//148 136//136
f 137//137 150//150 149//149
f 138//138 137//137 126//126
f 138//138 150//150 137//137
f 139//139 150//150 138//138
f 139//139 152//152 151//151
f 140//140 139//139 128//128
f 140//140 152//152 139//139
f 141//141 152//152 140//140
f 141//141 154//154 153//153
f 142//142 141//141 130//130
f 142//142 154//154 141//141
f 143//143 154//154 142//142
f 143//143 156//156 155//155
f 144//144 143//143 132//132
f 144//144 156//156 143//143
f 145//145 156//156 144//144
f 145//145 158//158 157//157
f 146//146 145//145 134//134
f 146//146 158//158 145//145
f 147//147 158//158 135//135
f 147//147 159//159 158//158
f 148//148 159//159 147//147
f 148//148 161//161 160//160
f 149//149 148//148 137//137
f 149//149 161//161 148//148
f 150//150 161//161 149//149
f 150//150 163//163 162//162
f 151//151 150//150 139//139
f 151//151 163//163 150//150
f 152//152 163//163 151//151
f 152//152 165//165 164//164
f 153//153 152//152 141//141
f 153//153 165//165 152//152
f 154//154 165//165 153//153
f 154//154 167//167 166//166
f 155//155 154//154 143//143
f 155//155 167//167 154//154
f 156//156 167//167 155//155
f 156//156 169//169 168//168
f 157//157 156//156 145//145
f 157//157 169//169 156//156
f 158//158 159//159 170//170
f 158//158 169//169 157//157
f 159//159 172//172 170//170
f 160//160 159//159 148//148
f 160//160 172//172 159//159
f 161//161 172//172 160//160
f 162//162 161//161 150//150
f 162//162 172//172 161//161
f 163//163 172//172 162//162
f 164//164 163//163 152//152
f 164//164 172//172 163//163
f 165//165 172//172 164//164
f 166//166 165//165 154//154
f 166//166 172//172 165//165
f 167//167 172//172 166//166
f 168//168 167//167 156//156
f 168//168 172//172 167//167
f 169//169 172//172 168//168
f 170//170 169//169 158//158
f 170//170 172//172 169//169
o sphere1_copy4
#86 vertices, 168 faces
v 3.8552214e-17 2.46193977 -0.19134172
v 9.5670858e-2 2.46193977 -0.16570679
v 0.16570679 2.46193977 -9.5670858e-2
v 0.19134172 2.46193977 -1.0571156e-18
v 0.16570679 2.46193977 9.5670858e-2
v 9.5670858e-2 2.46193977 0.16570679
v 3.8552214e-17 2.46193977 0.19134172
v -9.5670858e-2 2.46193977 0.16570679
v -0.16570679 2.46193977 9.5670858e-2
v -0.19134172 2.46193977 2.2375486e-17
v -0.16570679 2.46193977 -9.5670858e-2
v -9.5670858e-2 2.46193977 -0.16570679
v 6.2179572e-17 2.35355339 -0.35355339
v 0.17677670 2.35355339 -0.30618622
v 0.30618622 2.35355339 -0.17677670
v 0.35355339 2.35355339 -1.4751873e-17
v 0.30618622 2.35355339 0.17677670
v 0.17677670 2.35355339 0.30618622
v 6.2179572e-17 2.35355339 0.35355339
v -0.17677670 2.35355339 0.30618622
v -0.30618622 2.35355339 0.17677670
v -0.35355339 2.35355339 2.8545930e-17
v -0.30618622 2.35355339 -0.17677670
v -0.17677670 2.35355339 -0.30618622
v 8.9311977e-17 2.19134172 -0.46193977
v 0.23096988 2.19134172 -0.40005157
v 0.40005157 2.19134172 -0.23096988
v 0.46193977 2.19134172 -3.5247527e-17
v 0.40005157 2.19134172 0.23096988
v 0.23096988 2.19134172 0.40005157
v 8.9311977e-17 2.19134172 0.46193977
v -0.23096988 2.19134172 0.40005157
v -0.40005157 2.19134172 0.23096988
v -0.46193977 2.19134172 2.1323779e-17
v -0.40005157 2.19134172 -0.23096988
v -0.23096988 2.19134172 -0.40005157
v 1.1581877e-16 2.00000000 -0.50000000
v 0.25000000 2.00000000 -0.43301270
v 0.43301270 2.00000000 -0.25000000
v 0.50000000 2.00000000 -5.9423798e-17
v 0.43301270 2.00000000 0.25000000
v 0.25000000 2.00000000 0.43301270
v 1.1581877e-16 2.00000000 0.50000000
v -0.25000000 2.00000000 0.43301270
v -0.43301270 2.00000000 0.25000000
v -0.50000000 2.00000000 1.8085420e-18
v -0.43301270 2.00000000 -0.25000000
v -0.25000000 2.00000000 -0.43301270
v 1.3766452e-16 1.80865828 -0.46193977
v 0.23096988 1.80865828 -0.40005157
v 0.40005157 1.80865828 -0.23096988
v 0.46193977 1.80865828 -8.3600069e-17
v 0.40005157 1.80865828 0.23096988
v 0.23096988 1.80865828 0.40005157
v 1.3766452e-16 1.80865828 0.46193977
v -0.23096988 1.80865828 0.40005157
v -0.40005157 1.80865828 0.23096988
v -0.46193977 1.80865828 -2.7028764e-17
v -0.40005157 1.80865828 -0.23096988
v -0.23096988 1.80865828 -0.40005157
v 1.5152342e-16 1.64644661 -0.35355339
v 0.17677670 1.64644661 -0.30618622
v 0.30618622 1.64644661 -0.17677670
v 0.35355339 1.64644661 -1.0409572e-16
v 0.30618622 1.64644661 0.17677670
v 0.17677670 1.64644661 0.30618622
v 1.5152342e-16 1.64644661 0.35355339
v -0.17677670 1.64644661 0.30618622
v -0.30618622 1.64644661 0.17677670
v -0.35355339 1.64644661 -6.0797920e-17
v -0.30618622 1.64644661 -0.17677670
v -0.17677670 1.64644661 -0.30618622
v 1.5528558e-16 1.53806023 -0.19134172
v 9.5670858e-2 1.53806023 -0.16570679
v 0.16570679 1.53806023 -9.5670858e-2
v 0.19134172 1.53806023 -1.1779048e-16
v 0.16570679 1.53806023 9.5670858e-2
v 9.5670858e-2 1.53806023 0.16570679
v 1.5528558e-16 1.53806023 0.19134172
v -9.5670858e-2 1.53806023 0.16570679
v -0.16570679 1.53806023 9.5670858e-2
v -0.19134172 1.53806023 -9.4357878e-17
v -0.16570679 1.53806023 -9.5670858e-2
v -9.5670858e-2 1.53806023 -0.16570679
v 2.2026954e-17 2.50000000 3.7518438e-18
v 1.4837824e-16 1.50000000 -1.2259944e-16
vn 9.0119017e-17 0.89691190 -0.44220927
vn 0.19090082 0.92424429 -0.33064991
vn 0.38296446 0.89691190 -0.22110463
vn 0.38180163 0.92424429 2.8473915e-17
vn 0.38296446 0.89691190 0.22110463
vn 0.19090082 0.92424429 0.33064991
vn 2.2292599e-16 0.89691190 0.44220927
vn -0.19090082 0.92424429 0.33064991
vn -0.38296446 0.89691190 0.22110463
vn -0.38180163 0.92424429 1.4094588e-15
vn -0.38296446 0.89691190 -0.22110463
vn -0.19090082 0.92424429 -0.33064991
vn -4.7521463e-16 0.70803885 -0.70617349
vn 0.35308674 0.70803885 -0.61156418
vn 0.61156418 0.70803885 -0.35308674
vn 0.70617349 0.70803885 2.5200776e-17
vn 0.61156418 0.70803885 0.35308674
vn 0.35308674 0.70803885 0.61156418
vn 3.3121019e-16 0.70803885 0.70617349
vn -0.35308674 0.70803885 0.61156418
vn -0.61156418 0.70803885 0.35308674
vn -0.70617349 0.70803885 1.0584326e-15
vn -0.61156418 0.70803885 -0.35308674
vn -0.35308674 0.70803885 -0.61156418
vn -2.8762014e-16 0.38352586 -0.92353014
vn 0.46176507 0.38352586 -0.79980056
vn 0.79980056 0.38352586 -0.46176507
vn 0.92353014 0.38352586 5.8252180e-17
vn 0.79980056 0.38352586 0.46176507
vn 0.46176507 0.38352586 0.79980056
vn 1.3834893e-16 0.38352586 0.92353014
vn -0.46176507 0.38352586 0.79980056
vn -0.79980056 0.38352586 0.46176507
vn -0.92353014 0.38352586 1.4563045e-16
vn -0.79980056 0.38352586 -0.46176507
vn -0.46176507 0.38352586 -0.79980056
vn -1.1704104e-16 2.4139715e-16 -1.00000000
vn 0.50000000 1.4264377e-16 -0.86602540
vn 0.86602540 3.6575325e-16 -0.50000000
vn 1.00000000 1.3167117e-16 -1.0241091e-16
vn 0.86602540 1.3167117e-16 0.50000000
vn 0.50000000 -4.0232858e-17 0.86602540
vn 6.8761612e-16 -5.8520521e-17 1.00000000
vn -0.50000000 -2.1579442e-16 0.86602540
vn -0.86602540 -2.7797247e-16 0.50000000
vn -1.00000000 -2.7797247e-16 1.3167117e-16
vn -0.86602540 -1.9019169e-16 -0.50000000
vn -0.50000000 1.8287663e-17 -0.86602540
vn -5.8252180e-17 -0.38352586 -0.92353014
vn 0.46176507 -0.38352586 -0.79980056
vn 0.79980056 -0.38352586 -0.46176507
vn 0.92353014 -0.38352586 7.2815225e-17
vn 0.79980056 -0.38352586 0.46176507
vn 0.46176507 -0.38352586 0.79980056
vn 2.4757176e-16 -0.38352586 0.92353014
vn -0.46176507 -0.38352586 0.79980056
vn -0.79980056 -0.38352586 0.46176507
vn -0.92353014 -0.38352586 1.1650436e-16
vn -0.79980056 -0.38352586 -0.46176507
vn -0.46176507 -0.38352586 -0.79980056
vn 1.4400443e-17 -0.70803885 -0.70617349
vn 0.35308674 -0.70803885 -0.61156418
vn 0.61156418 -0.70803885 -0.35308674
vn 0.70617349 -0.70803885 2.1600665e-17
vn 0.61156418 -0.70803885 0.35308674
vn 0.35308674 -0.70803885 0.61156418
vn 2.0880643e-16 -0.70803885 0.70617349
vn -0.35308674 -0.70803885 0.61156418
vn -0.61156418 -0.70803885 0.35308674
vn -0.70617349 -0.70803885 1.2960399e-16
vn -0.61156418 -0.70803885 -0.35308674
vn -0.35308674 -0.70803885 -0.61156418
vn -9.0119017e-17 -0.89691190 -0.44220927
vn 0.19090082 -0.92424429 -0.33064991
vn 0.38296446 -0.89691190 -0.22110463
vn 0.38180163 -0.92424429 0.0000000e+0
vn 0.38296446 -0.89691190 0.22110463
vn 0.19090082 -0.92424429 0.33064991
vn 1.4703629e-16 -0.89691190 0.44220927
vn -0.19090082 -0.92424429 0.33064991
vn -0.38296446 -0.89691190 0.22110463
vn -0.38180163 -0.92424429 1.2813262e-16
vn -0.38296446 -0.89691190 -0.22110463
vn -0.19090082 -0.92424429 -0.33064991
vn 1.9482360e-17 1.00000000 2.5504181e-16
vn 2.4205357e-17 -1.00000000 -1.6766637e-16
g sphere1_copy4_default
usemtl default
s 1
f 173//173 186//186 185//185
f 173//173 196//196 184//184
f 173//173 257//257 174//174
f 174//174 186//186 173//173
f 174//174 257//257 175//175
f 175//175 186//186 174//174
f 175//175 188//188 187//187
f 175//175 257//257 176//176
f 176//176 188//188 175//175
f 176//176 257//257 177//177
f 177//177 188//188 176//176
f 177//177 190//190 189//189
f 177//177 257//257 178//178
f 178//178 190//190 177//177
f 178//178 257//257 179//179
f 179//179 190//190 178//178
f 179//179 192//192 191//191
f 179//179 257//257 180//180
f 180//180 192//192 179//179
f 180//180 257//257 181//181
f 181//181 192//192 180//180
f 181//181 194//194 193//193
f 181//181 257//257 182//182
f 182//182 194//194 181//181
f 182//182 257//257 183//183
f 183//183 194//194 182//182
f 183//183 196//196 195//195
f 183//183 257//257 184//184
f 184//184 196//196 183//183
f 184//184 257//257 173//173
f 185//185 196//196 173//173
f 185//185 197//197 196//196
f 186//186 197//197 185//185
f 186//186 199//199 198//198
f 187//187 186//186 175//175
f 187//187 199//199 186//186
f 188//188 199//199 187//187
f 188//188 201//201 200//200
f 189//189 188//188 177//177
f 189//189 201//201 188//188
f 190//190 201//201 189//189
f 190//190 203//203 202//202
f 191//191 190//190 179//179
f 191//191 203//203 190//190
f 192//192 203//203 191//191
f 192//192 205//205 204//204
f 193//193 192//192 181//181
f 193//193 205//205 192//192
f 194//194 205//205 193//193
f 194//194 207//207 206//206
f 195//195 194//194 183//183
f 195//195 207//207 194//194
f 196//196 197//197 208//208
f 196//196 207//207 195//195
f 197//197 210//210 209//209
f 197//197 220//220 208//208
f 198//198 197//197 186//186
f 198//198 210//210 197//197
f 199//199 210//210 198//198
f 199//199 212//212 211//211
f 200//200 199//199 188//188
f 200//200 212//212 199//199
f 201//201 212//212 200//200
f 201//201 214//214 213//213
f 202//202 201//201 190//190
f 202//202 214//214 201//201
f 203//203 214//214 202//202
f 203//203 216//216 215//215
f 204//204 203//203 192//192
f 204//204 216//216 203//203
f 205//205 216//216 204//204
f 205//205 218//218 217//217
f 206//206 205//205 194//194
f 206//206 218//218 205//205
f 207//207 218//218 206//206
f 207//207 220//220 219//219
f 208//208 207//207 196//196
f 208//208 220//220 207//207
f 209//209 220//220 197//197
f 209//209 221//221 220//220
f 210//210 221//221 209//209
f 210//210 223//223 222//222
f 211//211 210//210 199//199
f 211//211 223//223 210//210
f 212//212 223//223 211//211
f 212//212 225//225 224//224
f 213//213 212//212 201//201
f 213//213 225//225 212//212
f 214//214 225//225 213//213
f 214//214 227//227 226//226
f 215//215 214//214 203//203
f 215//215 227//227 214//214
f 216//216 227//227 215//215
f 216//216 229//229 228//228
f 217//217 216//216 205//205
f 217//217 229//229 216//216
f 218//218 229//229 217//217
f 218//218 231//231 230//230
f 219//219 218//218 207//207
f 219//219 231//231 218//218
f 220//220 221//221 232//232
f 220//220 231//231 219//219
f 221//221 234//234 233//233
f 221//221 244//244 232//232
f 222//222 221//221 210//210
f 222//222 234//234 221//221
f 223//223 234//234 222//222
f 223//223 236//236 235//235
f 224//224 223//223 212//212
f 224//224 236//236 223//223
f 225//225 236//236 224//224
f 225//225 238//238 237//237
f 226//226 225//225 214//214
f 226//226 238//238 225//225
f 227//227 238//238 226//226
f 227//227 240//240 239//239
f 228//228 227//227 216//216
f 228//228 240//240 227//227
f 229//229 240//240 228//228
f 229//229 242//242 241//241
f 230//230 229//229 218//218
f 230//230 242//242 229//229
f 231//231 242//242 230//230
f 231//231 244//244 243//243
f 232//232 231//231 220//220
f 232//232 244//244 231//231
f 233//233 244//244 221//221
f 233//233 245//245 244//244
f 234//234 245//245 233//233
f 234//234 247//247 246//246
f 235//235 234//234 223//223
f 235//235 247//247 234//234
f 236//236 247//247 235//235
f 236//236 249//249 248//248
f 237//237 236//236 225//225
f 237//237 249//249 236//236
f 238//238 249//249 237//237
f 238//238 251//251 250//250
f 239//239 238//238 227//227
f 239//239 251//251 238//238
f 240//240 251//251 239//239
f 240//240 253//253 252//252
f 241//241 240//240 229//229
f 241//241 253//253 240//240
f 242//242 253//253 241//241
f 242//242 255//255 254//254
f 243//243 242//242 231//231
f 243//243 255//255 242//242
f 244//244 245//245 256//256
f 244//244 255//255 243//243
f 245//245 258//258 256//256
f 246//246 245//245 234//234
f 246//246 258//258 245//245
f 247//247 258//258 246//246
f 248//248 247//247 236//236
f 248//248 258//258 247//247
f 249//249 258//258 248//248
f 250//250 249//249 238//238
f 250//250 258//258 249//249
f 251//251 258//258 250//250
f 252//252 251//251 240//240
f 252//252 258//258 251//251
f 253//253 258//258 252//252
f 254//254 253//253 242//242
f 254//254 258//258 253//253
f 255//255 258//258 254//254
f 256//256 255//255 244//244
f 256//256 258//258 255//255
