# Exported from Wings 3D 2.4.1
mtllib two_cones.mtl
o cone2_copy4
#17 vertices, 30 faces
v 0.50000000 0.96764706 1.1629835e-17
v 0.46193977 0.96764706 -0.19134172
v 0.35355339 0.96764706 -0.35355339
v 0.19134172 0.96764706 -0.46193977
v 1.5196406e-17 0.96764706 -0.50000000
v -0.19134172 0.96764706 -0.46193977
v -0.35355339 0.96764706 -0.35355339
v -0.46193977 0.96764706 -0.19134172
v -0.50000000 0.96764706 -4.9602505e-17
v -0.46193977 0.96764706 0.19134172
v -0.35355339 0.96764706 0.35355339
v -0.19134172 0.96764706 0.46193977
v -1.0726827e-16 0.96764706 0.50000000
v 0.19134172 0.96764706 0.46193977
v 0.35355339 0.96764706 0.35355339
v 0.46193977 0.96764706 0.19134172
v -1.5419764e-17 -3.2352941e-2 1.3409451e-16
vn 0.99770979 6.7640061e-2 -2.8819127e-16
vn 0.59046943 0.76910745 -0.24458044
vn 0.45192573 0.76910745 -0.45192573
vn 0.24458044 0.76910745 -0.59046943
vn 3.7570235e-17 0.76910745 -0.63911950
vn -0.24458044 0.76910745 -0.59046943
vn -0.45192573 0.76910745 -0.45192573
vn -0.77971445 0.53641108 -0.32296830
vn -0.99770979 6.7640061e-2 -5.2404217e-16
vn -0.59046943 0.76910745 0.24458044
vn -0.45192573 0.76910745 0.45192573
vn -0.24458044 0.76910745 0.59046943
vn -7.3223909e-17 0.76910745 0.63911950
vn 0.24458044 0.76910745 0.59046943
vn 0.45192573 0.76910745 0.45192573
vn 0.77971445 0.53641108 0.32296830
vn -6.3037944e-17 -1.00000000 1.9699358e-17
g cone2_copy4_default
usemtl default
s 1
f 1//1 17//17 2//2
f 2//2 16//16 1//1
f 2//2 17//17 3//3
f 3//3 15//15 2//2
f 3//3 17//17 4//4
f 4//4 14//14 3//3
f 4//4 17//17 5//5
f 5//5 13//13 4//4
f 5//5 17//17 6//6
f 6//6 12//12 5//5
f 6//6 17//17 7//7
f 7//7 11//11 6//6
f 7//7 17//17 8//8
f 8//8 10//10 7//7
f 8//8 17//17 9//9
f 9//9 10//10 8//8
f 9//9 17//17 10//10
f 10//10 17//17 11//11
f 11//11 7//7 10//10
f 11//11 17//17 12//12
f 12//12 6//6 11//11
f 12//12 17//17 13//13
f 13//13 5//5 12//12
f 13//13 17//17 14//14
f 14//14 4//4 13//13
f 14//14 17//17 15//15
f 15//15 3//3 14//14
f 15//15 17//17 16//16
f 16//16 2//2 15//15
f 16//16 17//17 1//1
o cone2
#17 vertices, 30 faces
v 0.50000000 -1.00000000 4.5268590e-17
v 0.46193977 -1.00000000 0.19134172
v 0.35355339 -1.00000000 0.35355339
v 0.19134172 -1.00000000 0.46193977
v 1.5196406e-17 -1.00000000 0.50000000
v -0.19134172 -1.00000000 0.46193977
v -0.35355339 -1.00000000 0.35355339
v -0.46193977 -1.00000000 0.19134172
v -0.50000000 -1.00000000 1.0650093e-16
v -0.46193977 -1.00000000 -0.19134172
v -0.35355339 -1.00000000 -0.35355339
v -0.19134172 -1.00000000 -0.46193977
v -1.0726827e-16 -1.00000000 -0.50000000
v 0.19134172 -1.00000000 -0.46193977
v 0.35355339 -1.00000000 -0.35355339
v 0.46193977 -1.00000000 -0.19134172
v -1.5419764e-17 0.0000000e+0 4.5268590e-17
vn 0.99770979 -6.7640061e-2 -1.5723394e-16
vn 0.59046943 -0.76910745 0.24458044
vn 0.45192573 -0.76910745 0.45192573
vn 0.24458044 -0.76910745 0.59046943
vn 3.0216585e-17 -0.76910745 0.63911950
vn -0.24458044 -0.76910745 0.59046943
vn -0.45192573 -0.76910745 0.45192573
vn -0.77971445 -0.53641108 0.32296830
vn -0.99770979 -6.7640061e-2 1.2578715e-16
vn -0.59046943 -0.76910745 -0.24458044
vn -0.45192573 -0.76910745 -0.45192573
vn -0.24458044 -0.76910745 -0.59046943
vn -8.0577559e-17 -0.76910745 -0.63911950
vn 0.24458044 -0.76910745 -0.59046943
vn 0.45192573 -0.76910745 -0.45192573
vn 0.77971445 -0.53641108 -0.32296830
vn -1.7335435e-16 1.00000000 -8.6677174e-17
g cone2_default
usemtl default
s 1
f 18//18 34//34 19//19
f 19//19 33//33 18//18
f 19//19 34//34 20//20
f 20//20 32//32 19//19
f 20//20 34//34 21//21
f 21//21 31//31 20//20
f 21//21 34//34 22//22
f 22//22 30//30 21//21
f 22//22 34//34 23//23
f 23//23 29//29 22//22
f 23//23 34//34 24//24
f 24//24 28//28 23//23
f 24//24 34//34 25//25
f 25//25 27//27 24//24
f 25//25 34//34 26//26
f 26//26 27//27 25//25
f 26//26 34//34 27//27
f 27//27 34//34 28//28
f 28//28 24//24 27//27
f 28//28 34//34 29//29
f 29//29 23//23 28//28
f 29//29 34//34 30//30
f 30//30 22//22 29//29
f 30//30 34//34 31//31
f 31//31 21//21 30//30
f 31//31 34//34 32//32
f 32//32 20//20 31//31
f 32//32 34//34 33//33
f 33//33 19//19 32//32
f 33//33 34//34 18//18
