# Exported from Wings 3D 2.4.1
mtllib two_diamonds.mtl
o cone2_copy2
#18 vertices, 32 faces
v 0.50000000 -1.50000000 4.5268590e-17
v 0.46193977 -1.50000000 0.19134172
v 0.35355339 -1.50000000 0.35355339
v 0.19134172 -1.50000000 0.46193977
v 1.5196406e-17 -1.50000000 0.50000000
v -0.19134172 -1.50000000 0.46193977
v -0.35355339 -1.50000000 0.35355339
v -0.46193977 -1.50000000 0.19134172
v -0.50000000 -1.50000000 1.0650093e-16
v -0.46193977 -1.50000000 -0.19134172
v -0.35355339 -1.50000000 -0.35355339
v -0.19134172 -1.50000000 -0.46193977
v -1.0726827e-16 -1.50000000 -0.50000000
v 0.19134172 -1.50000000 -0.46193977
v 0.35355339 -1.50000000 -0.35355339
v 0.46193977 -1.50000000 -0.19134172
v -1.5419764e-17 -0.50000000 4.5268590e-17
v -1.5419764e-17 -2.50000000 9.1561436e-16
vn 1.00000000 0.0000000e+0 -1.3395563e-16
vn 0.92387953 9.4556917e-17 0.38268343
vn 0.70710678 1.5759486e-16 0.70710678
vn 0.38268343 2.8367075e-16 0.92387953
vn 0.0000000e+0 3.1518972e-16 1.00000000
vn -0.38268343 2.9943024e-16 0.92387953
vn -0.70710678 2.8367075e-16 0.70710678
vn -0.92387953 1.1031640e-16 0.38268343
vn -1.00000000 -3.1518972e-17 1.4183537e-16
vn -0.92387953 -1.4183537e-16 -0.38268343
vn -0.70710678 -1.2607589e-16 -0.70710678
vn -0.38268343 -2.6791126e-16 -0.92387953
vn -1.3395563e-16 -4.4126561e-16 -1.00000000
vn 0.38268343 -4.5702510e-16 -0.92387953
vn 0.70710678 -2.9943024e-16 -0.70710678
vn 0.92387953 -6.3037944e-17 -0.38268343
vn -2.3639229e-16 1.00000000 -1.3395563e-16
vn -6.3037944e-17 -1.00000000 2.7973088e-16
g cone2_copy2_default
usemtl default
s 1
f 1//1 17//17 2//2
f 1//1 18//18 16//16
f 2//2 17//17 3//3
f 2//2 18//18 1//1
f 3//3 17//17 4//4
f 3//3 18//18 2//2
f 4//4 17//17 5//5
f 4//4 18//18 3//3
f 5//5 17//17 6//6
f 5//5 18//18 4//4
f 6//6 17//17 7//7
f 6//6 18//18 5//5
f 7//7 17//17 8//8
f 7//7 18//18 6//6
f 8//8 17//17 9//9
f 8//8 18//18 7//7
f 9//9 17//17 10//10
f 9//9 18//18 8//8
f 10//10 17//17 11//11
f 10//10 18//18 9//9
f 11//11 17//17 12//12
f 11//11 18//18 10//10
f 12//12 17//17 13//13
f 12//12 18//18 11//11
f 13//13 17//17 14//14
f 13//13 18//18 12//12
f 14//14 17//17 15//15
f 14//14 18//18 13//13
f 15//15 17//17 16//16
f 15//15 18//18 14//14
f 16//16 17//17 1//1
f 16//16 18//18 15//15
o cone2
#18 vertices, 32 faces
v 0.50000000 1.50000000 4.5268590e-17
v 0.46193977 1.50000000 0.19134172
v 0.35355339 1.50000000 0.35355339
v 0.19134172 1.50000000 0.46193977
v 1.5196406e-17 1.50000000 0.50000000
v -0.19134172 1.50000000 0.46193977
v -0.35355339 1.50000000 0.35355339
v -0.46193977 1.50000000 0.19134172
v -0.50000000 1.50000000 1.0650093e-16
v -0.46193977 1.50000000 -0.19134172
v -0.35355339 1.50000000 -0.35355339
v -0.19134172 1.50000000 -0.46193977
v -1.0726827e-16 1.50000000 -0.50000000
v 0.19134172 1.50000000 -0.46193977
v 0.35355339 1.50000000 -0.35355339
v 0.46193977 1.50000000 -0.19134172
v -1.5419764e-17 2.50000000 4.5268590e-17
v -1.5419764e-17 0.50000000 9.1561436e-16
vn 1.00000000 0.0000000e+0 -1.3395563e-16
vn 0.92387953 9.4556917e-17 0.38268343
vn 0.70710678 2.6791126e-16 0.70710678
vn 0.38268343 3.3094921e-16 0.92387953
vn 0.0000000e+0 4.2550612e-16 1.00000000
vn -0.38268343 3.6246818e-16 0.92387953
vn -0.70710678 2.0487332e-16 0.70710678
vn -0.92387953 1.1031640e-16 0.38268343
vn -1.00000000 -3.1518972e-17 1.4183537e-16
vn -0.92387953 -1.4183537e-16 -0.38268343
vn -0.70710678 -2.6791126e-16 -0.70710678
vn -0.38268343 -2.9943024e-16 -0.92387953
vn -1.4183537e-16 -2.2063281e-16 -1.00000000
vn 0.38268343 -2.0487332e-16 -0.92387953
vn 0.70710678 -1.5759486e-16 -0.70710678
vn 0.92387953 -6.3037944e-17 -0.38268343
vn -1.5759486e-17 1.00000000 5.5158201e-17
vn -1.2607589e-16 -1.00000000 4.2156625e-16
g cone2_default
usemtl default
s 1
f 19//19 35//35 20//20
f 19//19 36//36 34//34
f 20//20 35//35 21//21
f 20//20 36//36 19//19
f 21//21 35//35 22//22
f 21//21 36//36 20//20
f 22//22 35//35 23//23
f 22//22 36//36 21//21
f 23//23 35//35 24//24
f 23//23 36//36 22//22
f 24//24 35//35 25//25
f 24//24 36//36 23//23
f 25//25 35//35 26//26
f 25//25 36//36 24//24
f 26//26 35//35 27//27
f 26//26 36//36 25//25
f 27//27 35//35 28//28
f 27//27 36//36 26//26
f 28//28 35//35 29//29
f 28//28 36//36 27//27
f 29//29 35//35 30//30
f 29//29 36//36 28//28
f 30//30 35//35 31//31
f 30//30 36//36 29//29
f 31//31 35//35 32//32
f 31//31 36//36 30//30
f 32//32 35//35 33//33
f 32//32 36//36 31//31
f 33//33 35//35 34//34
f 33//33 36//36 32//32
f 34//34 35//35 19//19
f 34//34 36//36 33//33
